<mxfile host="app.diagrams.net" agent="Mozilla/5.0 (Windows NT 10.0; Win64; x64) AppleWebKit/537.36 (KHTML, like Gecko) Chrome/127.0.0.0 Safari/537.36" version="24.7.4">
  <diagram name="Page-1" id="YQQG44oRB374X1CAaPTc">
    <mxGraphModel dx="792" dy="1145" grid="1" gridSize="10" guides="1" tooltips="1" connect="1" arrows="1" fold="1" page="1" pageScale="1" pageWidth="827" pageHeight="1169" math="0" shadow="0">
      <root>
        <mxCell id="0" />
        <mxCell id="1" parent="0" />
        <mxCell id="rQ5R5E4TsbCQaKpN-CMh-1" value="" style="edgeStyle=orthogonalEdgeStyle;rounded=0;orthogonalLoop=1;jettySize=auto;html=1;strokeColor=#000000;" edge="1" parent="1" source="rQ5R5E4TsbCQaKpN-CMh-2" target="rQ5R5E4TsbCQaKpN-CMh-4">
          <mxGeometry relative="1" as="geometry" />
        </mxCell>
        <mxCell id="rQ5R5E4TsbCQaKpN-CMh-2" value="Début" style="rounded=1;whiteSpace=wrap;html=1;arcSize=50;" vertex="1" parent="1">
          <mxGeometry x="141" y="100" width="130" height="40" as="geometry" />
        </mxCell>
        <mxCell id="rQ5R5E4TsbCQaKpN-CMh-3" value="" style="edgeStyle=orthogonalEdgeStyle;rounded=0;orthogonalLoop=1;jettySize=auto;html=1;strokeColor=#000000;" edge="1" parent="1" source="rQ5R5E4TsbCQaKpN-CMh-4">
          <mxGeometry relative="1" as="geometry">
            <mxPoint x="206" y="250" as="targetPoint" />
          </mxGeometry>
        </mxCell>
        <mxCell id="rQ5R5E4TsbCQaKpN-CMh-4" value="Variables : position" style="rounded=0;whiteSpace=wrap;html=1;" vertex="1" parent="1">
          <mxGeometry x="118" y="180" width="176" height="40" as="geometry" />
        </mxCell>
        <mxCell id="rQ5R5E4TsbCQaKpN-CMh-5" value="" style="edgeStyle=orthogonalEdgeStyle;rounded=0;orthogonalLoop=1;jettySize=auto;html=1;strokeColor=#000000;" edge="1" parent="1" source="rQ5R5E4TsbCQaKpN-CMh-6">
          <mxGeometry relative="1" as="geometry">
            <mxPoint x="206" y="440" as="targetPoint" />
          </mxGeometry>
        </mxCell>
        <mxCell id="rQ5R5E4TsbCQaKpN-CMh-6" value="Lire:&lt;div&gt;position&lt;/div&gt;" style="shape=parallelogram;perimeter=parallelogramPerimeter;whiteSpace=wrap;html=1;fixedSize=1;" vertex="1" parent="1">
          <mxGeometry x="126" y="350" width="160" height="60" as="geometry" />
        </mxCell>
        <mxCell id="rQ5R5E4TsbCQaKpN-CMh-7" value="" style="edgeStyle=orthogonalEdgeStyle;rounded=0;orthogonalLoop=1;jettySize=auto;html=1;strokeColor=#000000;" edge="1" parent="1" source="rQ5R5E4TsbCQaKpN-CMh-9">
          <mxGeometry relative="1" as="geometry">
            <mxPoint x="350" y="480" as="targetPoint" />
          </mxGeometry>
        </mxCell>
        <mxCell id="rQ5R5E4TsbCQaKpN-CMh-8" value="" style="edgeStyle=orthogonalEdgeStyle;rounded=0;orthogonalLoop=1;jettySize=auto;html=1;strokeColor=#000000;" edge="1" parent="1" source="rQ5R5E4TsbCQaKpN-CMh-9" target="rQ5R5E4TsbCQaKpN-CMh-18">
          <mxGeometry relative="1" as="geometry" />
        </mxCell>
        <mxCell id="rQ5R5E4TsbCQaKpN-CMh-9" value="position == 1" style="rhombus;whiteSpace=wrap;html=1;" vertex="1" parent="1">
          <mxGeometry x="126" y="440" width="160" height="80" as="geometry" />
        </mxCell>
        <mxCell id="rQ5R5E4TsbCQaKpN-CMh-10" value="faux" style="text;html=1;align=center;verticalAlign=middle;resizable=0;points=[];autosize=1;strokeColor=none;fillColor=none;fontColor=#000000;" vertex="1" parent="1">
          <mxGeometry x="150" y="520" width="50" height="30" as="geometry" />
        </mxCell>
        <mxCell id="rQ5R5E4TsbCQaKpN-CMh-11" value="vrai" style="text;html=1;align=center;verticalAlign=middle;resizable=0;points=[];autosize=1;strokeColor=none;fillColor=none;fontColor=#000000;" vertex="1" parent="1">
          <mxGeometry x="286" y="445" width="40" height="30" as="geometry" />
        </mxCell>
        <mxCell id="rQ5R5E4TsbCQaKpN-CMh-12" value="Fin" style="rounded=1;whiteSpace=wrap;html=1;arcSize=50;" vertex="1" parent="1">
          <mxGeometry x="550" y="990" width="120" height="40" as="geometry" />
        </mxCell>
        <mxCell id="rQ5R5E4TsbCQaKpN-CMh-13" value="" style="edgeStyle=orthogonalEdgeStyle;rounded=0;orthogonalLoop=1;jettySize=auto;html=1;strokeColor=#000000;" edge="1" parent="1" target="rQ5R5E4TsbCQaKpN-CMh-6">
          <mxGeometry relative="1" as="geometry">
            <mxPoint x="206" y="310" as="sourcePoint" />
          </mxGeometry>
        </mxCell>
        <mxCell id="rQ5R5E4TsbCQaKpN-CMh-14" value="Afficher:&lt;div&gt;&quot;Choisissez votre position :&amp;nbsp;&lt;span style=&quot;background-color: initial;&quot;&gt;&quot;&lt;/span&gt;&lt;/div&gt;" style="shape=parallelogram;perimeter=parallelogramPerimeter;whiteSpace=wrap;html=1;fixedSize=1;" vertex="1" parent="1">
          <mxGeometry x="90" y="250" width="232" height="60" as="geometry" />
        </mxCell>
        <mxCell id="rQ5R5E4TsbCQaKpN-CMh-15" value="Afficher:&lt;div&gt;&quot;Vous êtes Support.&quot;&lt;/div&gt;" style="shape=parallelogram;perimeter=parallelogramPerimeter;whiteSpace=wrap;html=1;fixedSize=1;" vertex="1" parent="1">
          <mxGeometry x="340" y="445" width="150" height="70" as="geometry" />
        </mxCell>
        <mxCell id="rQ5R5E4TsbCQaKpN-CMh-16" value="" style="edgeStyle=orthogonalEdgeStyle;rounded=0;orthogonalLoop=1;jettySize=auto;html=1;strokeColor=#000000;" edge="1" parent="1" source="rQ5R5E4TsbCQaKpN-CMh-18" target="rQ5R5E4TsbCQaKpN-CMh-21">
          <mxGeometry relative="1" as="geometry" />
        </mxCell>
        <mxCell id="rQ5R5E4TsbCQaKpN-CMh-17" value="" style="edgeStyle=orthogonalEdgeStyle;rounded=0;orthogonalLoop=1;jettySize=auto;html=1;strokeColor=#000000;" edge="1" parent="1" source="rQ5R5E4TsbCQaKpN-CMh-18" target="rQ5R5E4TsbCQaKpN-CMh-31">
          <mxGeometry relative="1" as="geometry" />
        </mxCell>
        <mxCell id="rQ5R5E4TsbCQaKpN-CMh-18" value="position == 2" style="rhombus;whiteSpace=wrap;html=1;" vertex="1" parent="1">
          <mxGeometry x="126" y="550" width="160" height="80" as="geometry" />
        </mxCell>
        <mxCell id="rQ5R5E4TsbCQaKpN-CMh-19" value="" style="edgeStyle=orthogonalEdgeStyle;rounded=0;orthogonalLoop=1;jettySize=auto;html=1;strokeColor=#000000;" edge="1" parent="1" source="rQ5R5E4TsbCQaKpN-CMh-21" target="rQ5R5E4TsbCQaKpN-CMh-24">
          <mxGeometry relative="1" as="geometry" />
        </mxCell>
        <mxCell id="rQ5R5E4TsbCQaKpN-CMh-20" value="" style="edgeStyle=orthogonalEdgeStyle;rounded=0;orthogonalLoop=1;jettySize=auto;html=1;strokeColor=#000000;" edge="1" parent="1" source="rQ5R5E4TsbCQaKpN-CMh-21" target="rQ5R5E4TsbCQaKpN-CMh-32">
          <mxGeometry relative="1" as="geometry" />
        </mxCell>
        <mxCell id="rQ5R5E4TsbCQaKpN-CMh-21" value="position == 3" style="rhombus;whiteSpace=wrap;html=1;" vertex="1" parent="1">
          <mxGeometry x="126" y="660" width="160" height="80" as="geometry" />
        </mxCell>
        <mxCell id="rQ5R5E4TsbCQaKpN-CMh-22" value="" style="edgeStyle=orthogonalEdgeStyle;rounded=0;orthogonalLoop=1;jettySize=auto;html=1;strokeColor=#000000;" edge="1" parent="1" source="rQ5R5E4TsbCQaKpN-CMh-24" target="rQ5R5E4TsbCQaKpN-CMh-33">
          <mxGeometry relative="1" as="geometry" />
        </mxCell>
        <mxCell id="rQ5R5E4TsbCQaKpN-CMh-23" style="edgeStyle=orthogonalEdgeStyle;rounded=1;orthogonalLoop=1;jettySize=auto;html=1;exitX=0.5;exitY=1;exitDx=0;exitDy=0;entryX=0;entryY=0.5;entryDx=0;entryDy=0;strokeColor=#000000;curved=0;" edge="1" parent="1" source="rQ5R5E4TsbCQaKpN-CMh-24" target="rQ5R5E4TsbCQaKpN-CMh-34">
          <mxGeometry relative="1" as="geometry">
            <Array as="points">
              <mxPoint x="206" y="925" />
            </Array>
          </mxGeometry>
        </mxCell>
        <mxCell id="rQ5R5E4TsbCQaKpN-CMh-24" value="position == 4" style="rhombus;whiteSpace=wrap;html=1;" vertex="1" parent="1">
          <mxGeometry x="126" y="770" width="160" height="80" as="geometry" />
        </mxCell>
        <mxCell id="rQ5R5E4TsbCQaKpN-CMh-25" value="faux" style="text;html=1;align=center;verticalAlign=middle;resizable=0;points=[];autosize=1;strokeColor=none;fillColor=none;fontColor=#000000;" vertex="1" parent="1">
          <mxGeometry x="141" y="625" width="50" height="30" as="geometry" />
        </mxCell>
        <mxCell id="rQ5R5E4TsbCQaKpN-CMh-26" value="faux" style="text;html=1;align=center;verticalAlign=middle;resizable=0;points=[];autosize=1;strokeColor=none;fillColor=none;fontColor=#000000;" vertex="1" parent="1">
          <mxGeometry x="141" y="740" width="50" height="30" as="geometry" />
        </mxCell>
        <mxCell id="rQ5R5E4TsbCQaKpN-CMh-27" value="faux" style="text;html=1;align=center;verticalAlign=middle;resizable=0;points=[];autosize=1;strokeColor=none;fillColor=none;fontColor=#000000;" vertex="1" parent="1">
          <mxGeometry x="150" y="860" width="50" height="30" as="geometry" />
        </mxCell>
        <mxCell id="rQ5R5E4TsbCQaKpN-CMh-28" value="vrai" style="text;html=1;align=center;verticalAlign=middle;resizable=0;points=[];autosize=1;strokeColor=none;fillColor=none;fontColor=#000000;" vertex="1" parent="1">
          <mxGeometry x="286" y="555" width="40" height="30" as="geometry" />
        </mxCell>
        <mxCell id="rQ5R5E4TsbCQaKpN-CMh-29" value="vrai" style="text;html=1;align=center;verticalAlign=middle;resizable=0;points=[];autosize=1;strokeColor=none;fillColor=none;fontColor=#000000;" vertex="1" parent="1">
          <mxGeometry x="286" y="665" width="40" height="30" as="geometry" />
        </mxCell>
        <mxCell id="rQ5R5E4TsbCQaKpN-CMh-30" value="vrai" style="text;html=1;align=center;verticalAlign=middle;resizable=0;points=[];autosize=1;strokeColor=none;fillColor=none;fontColor=#000000;" vertex="1" parent="1">
          <mxGeometry x="286" y="775" width="40" height="30" as="geometry" />
        </mxCell>
        <mxCell id="rQ5R5E4TsbCQaKpN-CMh-31" value="Afficher:&lt;div&gt;&quot;Vous êtes Top.&quot;&lt;/div&gt;" style="shape=parallelogram;perimeter=parallelogramPerimeter;whiteSpace=wrap;html=1;fixedSize=1;" vertex="1" parent="1">
          <mxGeometry x="340" y="555" width="150" height="70" as="geometry" />
        </mxCell>
        <mxCell id="rQ5R5E4TsbCQaKpN-CMh-32" value="Afficher:&lt;div&gt;&quot;Vous êtes Mid.&quot;&lt;/div&gt;" style="shape=parallelogram;perimeter=parallelogramPerimeter;whiteSpace=wrap;html=1;fixedSize=1;" vertex="1" parent="1">
          <mxGeometry x="340" y="665" width="150" height="70" as="geometry" />
        </mxCell>
        <mxCell id="rQ5R5E4TsbCQaKpN-CMh-33" value="Afficher:&lt;div&gt;&quot;Vous êtes ADC.&quot;&lt;/div&gt;" style="shape=parallelogram;perimeter=parallelogramPerimeter;whiteSpace=wrap;html=1;fixedSize=1;" vertex="1" parent="1">
          <mxGeometry x="334" y="775" width="150" height="70" as="geometry" />
        </mxCell>
        <mxCell id="rQ5R5E4TsbCQaKpN-CMh-34" value="Afficher:&lt;div&gt;&quot;Vous êtes Jungle.&quot;&lt;/div&gt;" style="shape=parallelogram;perimeter=parallelogramPerimeter;whiteSpace=wrap;html=1;fixedSize=1;" vertex="1" parent="1">
          <mxGeometry x="334" y="890" width="150" height="70" as="geometry" />
        </mxCell>
        <mxCell id="rQ5R5E4TsbCQaKpN-CMh-36" value="" style="endArrow=none;html=1;rounded=0;strokeColor=#000000;" edge="1" parent="1">
          <mxGeometry width="50" height="50" relative="1" as="geometry">
            <mxPoint x="480" y="589.5" as="sourcePoint" />
            <mxPoint x="610" y="589.5" as="targetPoint" />
          </mxGeometry>
        </mxCell>
        <mxCell id="rQ5R5E4TsbCQaKpN-CMh-37" value="" style="endArrow=none;html=1;rounded=0;strokeColor=#000000;" edge="1" parent="1">
          <mxGeometry width="50" height="50" relative="1" as="geometry">
            <mxPoint x="480" y="699.5" as="sourcePoint" />
            <mxPoint x="610" y="699.5" as="targetPoint" />
          </mxGeometry>
        </mxCell>
        <mxCell id="rQ5R5E4TsbCQaKpN-CMh-38" value="" style="endArrow=none;html=1;rounded=0;exitX=1;exitY=0.5;exitDx=0;exitDy=0;strokeColor=#000000;" edge="1" parent="1" source="rQ5R5E4TsbCQaKpN-CMh-33">
          <mxGeometry width="50" height="50" relative="1" as="geometry">
            <mxPoint x="480" y="809.5" as="sourcePoint" />
            <mxPoint x="610" y="809.5" as="targetPoint" />
          </mxGeometry>
        </mxCell>
        <mxCell id="rQ5R5E4TsbCQaKpN-CMh-39" value="" style="endArrow=none;html=1;rounded=0;exitX=1;exitY=0.5;exitDx=0;exitDy=0;strokeColor=#000000;" edge="1" parent="1" source="rQ5R5E4TsbCQaKpN-CMh-34">
          <mxGeometry width="50" height="50" relative="1" as="geometry">
            <mxPoint x="480" y="924.5" as="sourcePoint" />
            <mxPoint x="610" y="924.5" as="targetPoint" />
          </mxGeometry>
        </mxCell>
        <mxCell id="rQ5R5E4TsbCQaKpN-CMh-41" value="" style="endArrow=classic;html=1;rounded=1;exitX=1;exitY=0.5;exitDx=0;exitDy=0;curved=0;" edge="1" parent="1" source="rQ5R5E4TsbCQaKpN-CMh-15" target="rQ5R5E4TsbCQaKpN-CMh-12">
          <mxGeometry width="50" height="50" relative="1" as="geometry">
            <mxPoint x="380" y="610" as="sourcePoint" />
            <mxPoint x="430" y="560" as="targetPoint" />
            <Array as="points">
              <mxPoint x="610" y="480" />
            </Array>
          </mxGeometry>
        </mxCell>
      </root>
    </mxGraphModel>
  </diagram>
</mxfile>
